# xmcd
#
# Track frame offsets:
#   150
#   17438
#   33745
#   51666
#   70359
#   84572
#   101937
#   118493
#   137490
#   152911
#   171992
#   189220
#   206138
#   224167
#   241285
#   254871
#   272873
#   291227
#
# Disc length: 4098 seconds
#
# Revision: 0
# Processed by: cddbd v1.5.1PL0 Copyright (c) Steve Scherf et al.
# Submitted via: GXTranscoder 2.0.1939
#
DISCID=2d100012
DTITLE=Aktuelle Lieder 2005 - Aktuelle Lieder 2005
DYEAR=2005
DGENRE=Dance
TTITLE0=Aktuell05/1
TTITLE1=Aktuell05/2
TTITLE2=Aktuell05/3
TTITLE3=Aktuell05/4
TTITLE4=Aktuell05/5
TTITLE5=Aktuell05/6
TTITLE6=Aktuell05/7
TTITLE7=Aktuell05/8
TTITLE8=Aktuell05/9
TTITLE9=Aktuell05/10
TTITLE10=Aktuell05/11
TTITLE11=Aktuell05/12
TTITLE12=Aktuell05/13
TTITLE13=Aktuell05/14
TTITLE14=Aktuell05/15
TTITLE15=Aktuell05/16
TTITLE16=Aktuell05/17
TTITLE17=Aktuell05/18
EXTD=
EXTT0=
EXTT1=
EXTT2=
EXTT3=
EXTT4=
EXTT5=
EXTT6=
EXTT7=
EXTT8=
EXTT9=
EXTT10=
EXTT11=
EXTT12=
EXTT13=
EXTT14=
EXTT15=
EXTT16=
EXTT17=
PLAYORDER=
